<?xml version="1.0" encoding="utf-8"?>
<!-- Generator: Adobe Illustrator 25.1.0, SVG Export Plug-In . SVG Version: 6.00 Build 0)  -->
<svg version="1.1" id="Layer_1" xmlns="http://www.w3.org/2000/svg" xmlns:xlink="http://www.w3.org/1999/xlink" x="0px" y="0px"
	 viewBox="0 0 252 72" style="enable-background:new 0 0 252 72;" xml:space="preserve">
<style type="text/css">
	.st0{fill:#0086CB;}
	.st1{fill:#009444;}
	.st2{fill:#6CBE45;}
	.st3{fill:#00BFF3;}
</style>
<g>
	<path d="M64.86,25.47h-3.82v19.25h3.82V25.47z M75.53,30.55c-2.09,0-3.48,0.78-4.2,1.93l-0.21-1.66h-3.47v13.9h3.74v-7.35
		c0-2.25,1.07-3.61,3.05-3.61c1.82,0,2.91,1.18,2.91,3.48v7.48h3.77v-8.26C81.12,32.9,79.09,30.55,75.53,30.55 M85.76,30.82h-3.88
		l5.35,13.9h4.25l5.51-13.9h-4.01l-3.56,10.1L85.76,30.82z M110.77,37.55c0-4.25-2.75-7-6.9-7c-4.14,0-6.92,2.89-6.92,7.22
		c0,4.36,2.78,7.24,6.95,7.24c3.5,0,6.15-1.95,6.76-4.84h-3.77c-0.43,1.2-1.52,1.82-2.89,1.82c-1.79,0-3.23-1.15-3.29-3.21h10.05
		V37.55z M103.87,33.46c1.63,0,2.99,0.94,3.16,2.86h-6.28C100.9,34.4,102.27,33.46,103.87,33.46 M112.21,40.36
		c0.03,2.81,2.73,4.63,6.42,4.63c3.26,0,6.07-1.47,6.07-4.46c0-2.03-1.15-3.4-3.77-3.93l-2.62-0.53c-1.36-0.24-2.03-0.59-2.03-1.39
		c0-0.86,0.78-1.44,2.14-1.44c1.39,0,2.41,0.67,2.43,1.84h3.66c0-2.78-2.57-4.52-6.1-4.52c-3.23,0-5.85,1.68-5.85,4.28
		c0,1.87,0.88,3.42,3.66,3.93l2.67,0.51c1.5,0.27,1.98,0.75,1.98,1.6c0,0.94-0.83,1.44-2.3,1.44c-1.5,0-2.67-0.69-2.7-1.95H112.21z
		 M132.26,44.72h2.83v-3.29h-1.63c-1.23,0-1.55-0.45-1.55-1.66v-5.64h3.18v-3.31h-3.18v-3.8h-3.74v2.43c0,0.94-0.24,1.36-1.1,1.36
		h-1.04v3.31h2.14v6.47C128.17,43.11,129.5,44.72,132.26,44.72 M136.41,37.77c0,4.33,3.02,7.22,7.27,7.22s7.27-2.89,7.27-7.22
		c0-4.3-3.02-7.24-7.27-7.24S136.41,33.46,136.41,37.77 M140.23,37.74c0-2.49,1.36-4.04,3.45-4.04c2.09,0,3.45,1.55,3.45,4.04
		c0,2.46-1.36,4.06-3.45,4.06C141.59,41.8,140.23,40.2,140.23,37.74 M159.99,30.82c-1.55,0-2.54,0.75-2.99,1.6l-0.4-1.6h-3.5v13.9
		h3.77v-7.14c0-2.11,0.7-3.42,2.91-3.42h2.11v-3.34H159.99z M162.81,40.36c0.03,2.81,2.73,4.63,6.42,4.63
		c3.26,0,6.07-1.47,6.07-4.46c0-2.03-1.15-3.4-3.77-3.93l-2.62-0.53c-1.36-0.24-2.03-0.59-2.03-1.39c0-0.86,0.78-1.44,2.14-1.44
		c1.39,0,2.41,0.67,2.43,1.84h3.66c0-2.78-2.57-4.52-6.09-4.52c-3.24,0-5.85,1.68-5.85,4.28c0,1.87,0.88,3.42,3.66,3.93l2.67,0.51
		c1.5,0.27,1.98,0.75,1.98,1.6c0,0.94-0.83,1.44-2.3,1.44c-1.5,0-2.67-0.69-2.7-1.95H162.81z M189.08,35.01
		c1.84-0.99,2.65-2.54,2.65-4.25c0-2.83-2.19-4.76-5.91-4.76h-7.57v18.71h8.29c3.66,0,5.88-2.03,5.88-5.05
		C192.42,37.37,191.14,35.68,189.08,35.01 M190.07,30.95c0,2.19-1.55,3.39-3.85,3.39h-6.34v-6.82h5.93
		C188.6,27.53,190.07,28.81,190.07,30.95 M186.25,43.19h-6.36v-7.35h6.66c2.67,0,4.17,1.44,4.17,3.72
		C190.71,41.75,189.27,43.19,186.25,43.19 M206.48,43.46c-0.88,0-1.07-0.24-1.07-1.15v-6.07c0-3.1-1.76-5.16-5.29-5.16
		c-2.94,0-5.16,1.42-5.4,4.14h1.58c0.13-1.76,1.5-2.81,3.77-2.81c2.19,0,3.8,1.07,3.8,3.88v0.8h-4.49c-3.98,0-5.19,1.76-5.19,3.82
		c0,2.49,1.84,4.06,4.81,4.06c2.22,0,4.09-0.94,4.87-2.22c0.08,1.5,1.04,1.95,2.03,1.95h1.04v-1.26H206.48z M199.12,43.65
		c-1.98,0-3.34-0.91-3.34-2.7c0-1.5,0.94-2.57,3.58-2.57h4.49v0.67C203.86,42.29,201.48,43.65,199.12,43.65 M215.16,31.08
		c-2.06,0-3.74,0.85-4.54,2.51l-0.24-2.25h-1.26v13.37h1.52v-7.32c0-2.81,1.47-4.84,4.28-4.84c2.33,0,3.96,1.42,3.96,4.44v7.73h1.55
		V36.7C220.43,33.28,218.45,31.08,215.16,31.08 M223.69,44.72h1.52v-4.2l2.14-2.19l5.03,6.39h1.92l-5.88-7.46l5.83-5.91h-1.98
		l-7.06,7.11V25.2h-1.52V44.72z"/>
	<path class="st0" d="M36.12,21.47c-2.39-2.14-4.96-4.17-7.51-5.97c1.92-1.4,3.88-2.77,5.96-3.93c2.69,1.09,5.04,2.81,7.23,4.7
		C39.89,17.99,37.97,19.7,36.12,21.47"/>
	<path class="st1" d="M40.97,44.39c2.11-2.36,4.12-4.9,5.97-7.51c1.4,1.92,2.77,3.88,3.93,5.96c-1.09,2.69-2.81,5.04-4.7,7.23
		C44.45,48.16,42.74,46.24,40.97,44.39"/>
	<path class="st2" d="M7.23,33.83c-1.4-1.92-2.77-3.88-3.93-5.96c1.09-2.69,2.81-5.04,4.7-7.23c1.72,1.9,3.43,3.82,5.2,5.67
		C11.08,28.69,9.07,31.24,7.23,33.83"/>
	<path class="st2" d="M41.79,54.44c-2.19,1.88-4.54,3.61-7.23,4.7c-2.91-1.63-5.63-3.63-8.26-5.66c-3.55-2.74-6.96-5.68-10.09-8.9
		c2.46-2.5,4.93-5,7.41-7.49C29.53,43.03,35.58,48.82,41.79,54.44"/>
	<path class="st3" d="M25.56,55.21c-1.92,1.4-3.88,2.77-5.96,3.93c-2.69-1.09-5.04-2.81-7.23-4.7c1.9-1.72,3.82-3.43,5.67-5.2
		C20.42,51.36,22.97,53.37,25.56,55.21"/>
	<path class="st3" d="M46.17,20.65c1.88,2.19,3.61,4.54,4.7,7.23c-1.63,2.91-3.63,5.63-5.66,8.26c-2.74,3.55-5.68,6.96-8.9,10.09
		c-2.5-2.46-5-4.93-7.49-7.41C34.76,32.91,40.54,26.86,46.17,20.65"/>
	<path class="st1" d="M12.38,16.27c2.19-1.88,4.54-3.61,7.23-4.7c2.91,1.63,5.63,3.63,8.26,5.66c3.55,2.74,6.96,5.68,10.09,8.9
		c-2.46,2.5-4.93,5-7.41,7.49C24.64,27.69,18.59,21.9,12.38,16.27"/>
	<path class="st0" d="M17.86,24.48c2.5,2.46,5,4.93,7.49,7.41C19.41,37.8,13.63,43.85,8,50.06c-1.88-2.19-3.61-4.54-4.7-7.23
		c1.63-2.91,3.63-5.63,5.66-8.26C11.71,31.02,14.65,27.61,17.86,24.48"/>
</g>
<g>
	<path d="M61.34,60.44H60.4v-5.95h0.94V60.44z"/>
	<path d="M66.45,57.88v2.56h-0.92v-2.37c0-0.8-0.41-1.19-1.04-1.19c-0.71,0-1.09,0.5-1.09,1.26v2.3h-0.91v-4.28h0.83l0.07,0.58
		c0.24-0.41,0.7-0.66,1.35-0.66C65.81,56.08,66.45,56.79,66.45,57.88z"/>
	<path d="M69.12,59.47l1.26-3.32h0.99l-1.75,4.29H68.6l-1.71-4.29h0.96L69.12,59.47z"/>
	<path d="M75.85,58.55h-3.28c0.02,0.8,0.54,1.22,1.21,1.22c0.5,0,0.92-0.23,1.09-0.7h0.93c-0.23,0.87-0.99,1.45-2.04,1.45
		c-1.28,0-2.12-0.89-2.12-2.23c0-1.34,0.84-2.22,2.11-2.22c1.25,0,2.09,0.85,2.09,2.14V58.55z M72.58,57.92h2.34
		c-0.05-0.74-0.54-1.12-1.16-1.12C73.15,56.8,72.64,57.17,72.58,57.92z"/>
	<path d="M77.43,59.14c0.01,0.44,0.42,0.7,0.98,0.7c0.56,0,0.89-0.21,0.89-0.59c0-0.33-0.17-0.5-0.65-0.58l-0.86-0.15
		c-0.84-0.14-1.16-0.58-1.16-1.19c0-0.77,0.76-1.27,1.73-1.27c1.04,0,1.81,0.5,1.81,1.35h-0.9c-0.01-0.43-0.38-0.68-0.91-0.68
		c-0.5,0-0.82,0.21-0.82,0.56c0,0.31,0.22,0.45,0.69,0.53L79.07,58c0.79,0.14,1.16,0.53,1.16,1.18c0,0.89-0.82,1.35-1.81,1.35
		c-1.13,0-1.89-0.54-1.91-1.38H77.43z"/>
	<path d="M81.31,59.28v-2.31h-0.72v-0.81h0.37c0.27,0,0.35-0.13,0.35-0.4v-0.74h0.91v1.15h0.99v0.81h-0.99v2.13
		c0,0.34,0.1,0.53,0.5,0.53h0.48v0.81h-0.74C81.72,60.44,81.31,60.02,81.31,59.28z"/>
	<path d="M86.03,56.07c1.3,0,2.21,0.91,2.21,2.23s-0.9,2.22-2.21,2.22c-1.3,0-2.2-0.9-2.2-2.22S84.74,56.07,86.03,56.07z
		 M86.03,59.74c0.77,0,1.27-0.57,1.27-1.45c0-0.89-0.5-1.45-1.27-1.45c-0.76,0-1.26,0.56-1.26,1.45
		C84.77,59.17,85.27,59.74,86.03,59.74z"/>
	<path d="M91.7,56.16v0.82h-0.61c-0.71,0-0.99,0.45-0.99,1.18v2.28h-0.92v-4.28h0.84l0.11,0.55c0.16-0.3,0.52-0.55,1.01-0.55H91.7z"
		/>
	<path d="M93.01,59.14c0.01,0.44,0.42,0.7,0.98,0.7c0.56,0,0.89-0.21,0.89-0.59c0-0.33-0.17-0.5-0.65-0.58l-0.86-0.15
		c-0.84-0.14-1.16-0.58-1.16-1.19c0-0.77,0.76-1.27,1.73-1.27c1.04,0,1.81,0.5,1.81,1.35h-0.9c-0.01-0.43-0.38-0.68-0.91-0.68
		c-0.5,0-0.82,0.21-0.82,0.56c0,0.31,0.22,0.45,0.69,0.53L94.66,58c0.79,0.14,1.16,0.53,1.16,1.18c0,0.89-0.82,1.35-1.81,1.35
		c-1.13,0-1.89-0.54-1.91-1.38H93.01z"/>
	<path d="M103,58.79c0,1.01-0.75,1.65-1.98,1.65h-2.67v-5.95h2.48c1.27,0,1.96,0.61,1.96,1.56c0,0.5-0.2,1.05-0.81,1.3
		C102.63,57.56,103,58.11,103,58.79z M100.78,55.31h-1.49v1.73h1.56c0.63,0,0.99-0.34,0.99-0.87
		C101.84,55.66,101.49,55.31,100.78,55.31z M102.02,58.73c0-0.58-0.39-0.92-1.04-0.92h-1.68v1.81h1.63
		C101.63,59.62,102.02,59.29,102.02,58.73z"/>
	<path d="M107.89,59.75v0.69h-0.52c-0.35,0-0.67-0.13-0.74-0.54c-0.24,0.38-0.77,0.63-1.44,0.63c-0.94,0-1.55-0.49-1.55-1.31
		c0-0.73,0.46-1.26,1.63-1.26h1.25v-0.22c0-0.63-0.38-0.92-0.94-0.92c-0.57,0-0.94,0.28-0.96,0.73h-0.84
		c0.02-0.93,0.79-1.46,1.84-1.46c1,0,1.82,0.5,1.82,1.66v1.73c0,0.23,0.09,0.28,0.28,0.28H107.89z M106.53,58.58h-1.12
		c-0.62,0-0.81,0.28-0.81,0.59c0,0.43,0.34,0.63,0.81,0.63c0.63,0,1.12-0.34,1.12-1.04V58.58z"/>
	<path d="M112.63,57.88v2.56h-0.92v-2.37c0-0.8-0.41-1.19-1.04-1.19c-0.71,0-1.09,0.5-1.09,1.26v2.3h-0.91v-4.28h0.83l0.07,0.58
		c0.24-0.41,0.7-0.66,1.35-0.66C111.99,56.08,112.63,56.79,112.63,57.88z"/>
	<path d="M113.67,54.23h0.91v3.83l1.87-1.91h1.14L115.76,58l1.85,2.44h-1.15l-1.35-1.8l-0.5,0.51v1.29h-0.94V54.23z"/>
	<path d="M119.79,54.41h1.01v0.95h-1.01V54.41z M119.84,56.16h0.91v4.28h-0.91V56.16z"/>
	<path d="M122.49,59.14c0.01,0.44,0.42,0.7,0.98,0.7c0.56,0,0.89-0.21,0.89-0.59c0-0.33-0.17-0.5-0.65-0.58l-0.86-0.15
		c-0.84-0.14-1.16-0.58-1.16-1.19c0-0.77,0.76-1.27,1.73-1.27c1.04,0,1.81,0.5,1.81,1.35h-0.9c-0.01-0.43-0.38-0.68-0.91-0.68
		c-0.5,0-0.82,0.21-0.82,0.56c0,0.31,0.22,0.45,0.69,0.53l0.84,0.15c0.79,0.14,1.16,0.53,1.16,1.18c0,0.89-0.82,1.35-1.81,1.35
		c-1.13,0-1.89-0.54-1.91-1.38H122.49z"/>
	<path d="M131.79,59.75v0.69h-0.52c-0.35,0-0.67-0.13-0.74-0.54c-0.24,0.38-0.77,0.63-1.44,0.63c-0.94,0-1.55-0.49-1.55-1.31
		c0-0.73,0.46-1.26,1.63-1.26h1.25v-0.22c0-0.63-0.38-0.92-0.94-0.92c-0.57,0-0.94,0.28-0.96,0.73h-0.84
		c0.02-0.93,0.79-1.46,1.84-1.46c1,0,1.82,0.5,1.82,1.66v1.73c0,0.23,0.09,0.28,0.28,0.28H131.79z M130.43,58.58h-1.12
		c-0.62,0-0.81,0.28-0.81,0.59c0,0.43,0.34,0.63,0.81,0.63c0.63,0,1.12-0.34,1.12-1.04V58.58z"/>
	<path d="M138.43,54.23v6.21h-0.84l-0.08-0.65c-0.26,0.43-0.82,0.74-1.48,0.74c-1.18,0-2.03-0.82-2.03-2.21
		c0-1.44,0.89-2.24,2.03-2.24c0.67,0,1.21,0.28,1.47,0.72v-2.56H138.43z M137.49,58.31c0-0.88-0.55-1.43-1.27-1.42
		c-0.75,0-1.27,0.55-1.27,1.42c0,0.89,0.53,1.4,1.27,1.4C136.94,59.71,137.49,59.19,137.49,58.31z"/>
	<path d="M139.47,54.41h1.01v0.95h-1.01V54.41z M139.52,56.16h0.91v4.28h-0.91V56.16z"/>
	<path d="M143.3,59.47l1.26-3.32h0.99l-1.76,4.29h-1.02l-1.71-4.29h0.96L143.3,59.47z"/>
	<path d="M146.12,54.41h1.01v0.95h-1.01V54.41z M146.17,56.16h0.91v4.28h-0.91V56.16z"/>
	<path d="M148.82,59.14c0.01,0.44,0.42,0.7,0.98,0.7s0.89-0.21,0.89-0.59c0-0.33-0.17-0.5-0.65-0.58l-0.86-0.15
		c-0.84-0.14-1.16-0.58-1.16-1.19c0-0.77,0.76-1.27,1.73-1.27c1.04,0,1.81,0.5,1.81,1.35h-0.9c-0.01-0.43-0.38-0.68-0.91-0.68
		c-0.5,0-0.82,0.21-0.82,0.56c0,0.31,0.22,0.45,0.69,0.53l0.84,0.15c0.79,0.14,1.16,0.53,1.16,1.18c0,0.89-0.82,1.35-1.81,1.35
		c-1.13,0-1.89-0.54-1.91-1.38H148.82z"/>
	<path d="M152.45,54.41h1.01v0.95h-1.01V54.41z M152.5,56.16h0.91v4.28h-0.91V56.16z"/>
	<path d="M156.55,56.07c1.3,0,2.21,0.91,2.21,2.23s-0.9,2.22-2.21,2.22c-1.29,0-2.2-0.9-2.2-2.22S155.26,56.07,156.55,56.07z
		 M156.55,59.74c0.77,0,1.27-0.57,1.27-1.45c0-0.89-0.5-1.45-1.27-1.45c-0.76,0-1.26,0.56-1.26,1.45
		C155.29,59.17,155.79,59.74,156.55,59.74z"/>
	<path d="M163.66,57.88v2.56h-0.92v-2.37c0-0.8-0.41-1.19-1.04-1.19c-0.71,0-1.09,0.5-1.09,1.26v2.3h-0.91v-4.28h0.83l0.07,0.58
		c0.24-0.41,0.7-0.66,1.35-0.66C163.02,56.08,163.66,56.79,163.66,57.88z"/>
	<path d="M168.34,56.07c1.3,0,2.21,0.91,2.21,2.23s-0.9,2.22-2.21,2.22c-1.29,0-2.2-0.9-2.2-2.22S167.04,56.07,168.34,56.07z
		 M168.34,59.74c0.77,0,1.27-0.57,1.27-1.45c0-0.89-0.5-1.45-1.27-1.45c-0.76,0-1.26,0.56-1.26,1.45
		C167.08,59.17,167.58,59.74,168.34,59.74z"/>
	<path d="M171.78,56.16v-0.69c0-0.81,0.38-1.25,1.31-1.25h0.63v0.77h-0.47c-0.46,0-0.55,0.23-0.55,0.54v0.63h1.02v0.8h-1.02v3.48
		h-0.92v-3.48h-0.7v-0.8H171.78z"/>
	<path d="M180.4,58.51h1.04c-0.33,1.2-1.3,2.01-2.74,2.01c-1.7,0-2.85-1.21-2.85-3.01c0-1.79,1.12-3.1,2.88-3.1
		c1.4,0,2.38,0.77,2.71,2h-1.04c-0.29-0.76-0.89-1.14-1.69-1.14c-1.16,0-1.89,0.9-1.89,2.21c0,1.3,0.72,2.17,1.88,2.17
		C179.5,59.65,180.1,59.29,180.4,58.51z"/>
	<path d="M182.29,54.41h1.01v0.95h-1.01V54.41z M182.34,56.16h0.91v4.28h-0.91V56.16z"/>
	<path d="M184.6,59.28v-2.31h-0.72v-0.81h0.37c0.27,0,0.35-0.13,0.35-0.4v-0.74h0.91v1.15h0.99v0.81h-0.99v2.13
		c0,0.34,0.1,0.53,0.5,0.53h0.49v0.81h-0.74C185,60.44,184.6,60.02,184.6,59.28z"/>
	<path d="M187.3,54.41h1.01v0.95h-1.01V54.41z M187.35,56.16h0.91v4.28h-0.91V56.16z"/>
	<path d="M192.66,59.63v0.81h-3.48v-0.79l2.32-2.67h-2.33v-0.81h3.47v0.79l-2.31,2.67H192.66z"/>
	<path d="M197.45,58.55h-3.28c0.02,0.8,0.54,1.22,1.21,1.22c0.5,0,0.92-0.23,1.09-0.7h0.93c-0.23,0.87-0.99,1.45-2.04,1.45
		c-1.28,0-2.12-0.89-2.12-2.23c0-1.34,0.84-2.22,2.11-2.22c1.25,0,2.09,0.85,2.09,2.14V58.55z M194.18,57.92h2.34
		c-0.05-0.74-0.54-1.12-1.16-1.12C194.75,56.8,194.24,57.17,194.18,57.92z"/>
	<path d="M202.34,57.88v2.56h-0.92v-2.37c0-0.8-0.41-1.19-1.04-1.19c-0.71,0-1.09,0.5-1.09,1.26v2.3h-0.91v-4.28h0.83l0.07,0.58
		c0.24-0.41,0.7-0.66,1.35-0.66C201.71,56.08,202.34,56.79,202.34,57.88z"/>
	<path d="M204.03,59.14c0.01,0.44,0.42,0.7,0.98,0.7s0.89-0.21,0.89-0.59c0-0.33-0.17-0.5-0.65-0.58l-0.86-0.15
		c-0.84-0.14-1.16-0.58-1.16-1.19c0-0.77,0.76-1.27,1.73-1.27c1.04,0,1.81,0.5,1.81,1.35h-0.9c-0.01-0.43-0.38-0.68-0.91-0.68
		c-0.5,0-0.82,0.21-0.82,0.56c0,0.31,0.22,0.45,0.69,0.53l0.84,0.15c0.79,0.14,1.16,0.53,1.16,1.18c0,0.89-0.82,1.35-1.81,1.35
		c-1.13,0-1.89-0.54-1.91-1.38H204.03z"/>
	<path d="M214.02,58.79c0,1.01-0.75,1.65-1.98,1.65h-2.67v-5.95h2.48c1.27,0,1.96,0.61,1.96,1.56c0,0.5-0.2,1.05-0.81,1.3
		C213.65,57.56,214.02,58.11,214.02,58.79z M211.79,55.31h-1.49v1.73h1.56c0.63,0,0.99-0.34,0.99-0.87
		C212.85,55.66,212.5,55.31,211.79,55.31z M213.03,58.73c0-0.58-0.39-0.92-1.04-0.92h-1.68v1.81h1.63
		C212.65,59.62,213.03,59.29,213.03,58.73z"/>
	<path d="M218.91,59.75v0.69h-0.52c-0.35,0-0.67-0.13-0.73-0.54c-0.24,0.38-0.77,0.63-1.44,0.63c-0.94,0-1.55-0.49-1.55-1.31
		c0-0.73,0.46-1.26,1.63-1.26h1.25v-0.22c0-0.63-0.38-0.92-0.94-0.92c-0.57,0-0.94,0.28-0.96,0.73h-0.84
		c0.03-0.93,0.79-1.46,1.84-1.46c1,0,1.82,0.5,1.82,1.66v1.73c0,0.23,0.09,0.28,0.28,0.28H218.91z M217.55,58.58h-1.12
		c-0.62,0-0.81,0.28-0.81,0.59c0,0.43,0.34,0.63,0.81,0.63c0.64,0,1.12-0.34,1.12-1.04V58.58z"/>
	<path d="M223.64,57.88v2.56h-0.92v-2.37c0-0.8-0.41-1.19-1.04-1.19c-0.71,0-1.09,0.5-1.09,1.26v2.3h-0.91v-4.28h0.83l0.07,0.58
		c0.24-0.41,0.7-0.66,1.35-0.66C223.01,56.08,223.64,56.79,223.64,57.88z"/>
	<path d="M224.68,54.23h0.91v3.83l1.87-1.91h1.14L226.77,58l1.85,2.44h-1.15l-1.35-1.8l-0.5,0.51v1.29h-0.94V54.23z"/>
	<path d="M229.15,59.29h1.17v1.15l-0.53,0.98h-0.54l0.48-0.98h-0.58V59.29z"/>
	<path d="M232.95,54.49h0.97l2.87,4.44v-4.44h0.93v5.95h-0.96l-2.88-4.39v4.39h-0.93V54.49z"/>
	<path d="M238.75,59.29h1.17v1.15h-1.17V59.29z"/>
	<path d="M244.54,59.08h-2.51l-0.51,1.36h-0.96l2.28-5.95h0.95l2.27,5.95h-1.02L244.54,59.08z M244.25,58.32l-0.96-2.58l-0.97,2.58
		H244.25z"/>
	<path d="M246.7,59.29h1.17v1.15h-1.17V59.29z"/>
</g>
</svg>
