<?xml version="1.0" encoding="UTF-8"?>
<svg width="42px" height="42px" viewBox="0 0 42 42" version="1.1" xmlns="http://www.w3.org/2000/svg" xmlns:xlink="http://www.w3.org/1999/xlink">
    <title>pictograms / industry solutions</title>
    <defs>
        <filter color-interpolation-filters="auto" id="filter-1">
            <feColorMatrix in="SourceGraphic" type="matrix" values="0 0 0 0 1.000000 0 0 0 0 1.000000 0 0 0 0 1.000000 0 0 0 1.000000 0"></feColorMatrix>
        </filter>
    </defs>
    <g id="pictograms-/-industry-solutions" stroke="none" stroke-width="1" fill="none" fill-rule="evenodd" stroke-linecap="round" stroke-linejoin="round">
        <g id="icons-/-pictograms-/-industry-solutions" filter="url(#filter-1)">
            <g id="Group-8" transform="translate(9.000000, 3.000000)" stroke="#323232" stroke-width="2">
                <line x1="13" y1="24.002" x2="13" y2="14.824" id="Stroke-1"></line>
                <line x1="8.7648" y1="14.824" x2="17.2348" y2="14.824" id="Stroke-2"></line>
                <g id="Group-7">
                    <path d="M19,24.526 L19,30 C19,33.314 16.314,36 13,36 L13,36 C9.686,36 7,33.314 7,30 C7,30 7,24.526 7,24.526 C2.842,22.358 0,18.014 0,13 C0,5.82 5.82,0 13,0 C20.18,0 26,5.82 26,13 C26,18.014 23.158,22.358 19,24.526 Z" id="Stroke-3"></path>
                    <line x1="19.9114" y1="24.002" x2="6.0894" y2="24.002" id="Stroke-5"></line>
                </g>
            </g>
        </g>
    </g>
</svg>