<?xml version="1.0" encoding="UTF-8"?>
<svg width="43px" height="43px" viewBox="0 0 43 43" version="1.1" xmlns="http://www.w3.org/2000/svg" xmlns:xlink="http://www.w3.org/1999/xlink">
    <title>instagram</title>
    <g stroke="none" fill="none">
        <g fill="#ffffff">
            <path d="M21.501,0 C33.376,0 43.002,9.626 43.002,21.5 C43.002,33.375 33.376,43.001 21.501,43.001 C9.627,43.001 0,33.375 0,21.5 C0,9.626 9.627,0 21.501,0 Z M28.2516052,7 L14.7483948,7 L14.5024246,7.00382983 C10.3368598,7.13372278 7,10.551296 7,14.7483948 L7,14.7483948 L7,28.2516052 L7.00382983,28.4975754 C7.13372278,32.6631402 10.551296,36 14.7483948,36 L14.7483948,36 L28.2516052,36 L28.4975754,35.9961702 C32.6631402,35.8662772 36,32.448704 36,28.2516052 L36,28.2516052 L36,14.7483948 L35.9961702,14.5024246 C35.8662772,10.3368598 32.448704,7 28.2516052,7 L28.2516052,7 Z M28.2516052,9.38725996 C31.2125528,9.38725996 33.61274,11.7874472 33.61274,14.7483948 L33.61274,14.7483948 L33.61274,28.2516052 L33.6082684,28.4725961 C33.4923802,31.3310621 31.1385291,33.61274 28.2516052,33.61274 L28.2516052,33.61274 L14.7483948,33.61274 L14.5274039,33.6082684 C11.6689379,33.4923802 9.38725996,31.1385291 9.38725996,28.2516052 L9.38725996,28.2516052 L9.38725996,14.7483948 L9.39173157,14.5274039 C9.5076198,11.6689379 11.8614709,9.38725996 14.7483948,9.38725996 L14.7483948,9.38725996 Z M21.5000868,14.0423735 C17.3812608,14.0423735 14.0422867,17.3811878 14.0422867,21.4999566 C14.0422867,25.6187254 17.3812608,28.9575397 21.5000868,28.9575397 C25.6187357,28.9575397 28.9576699,25.6186854 28.9576699,21.4999566 C28.9576699,17.3812278 25.6187357,14.0423735 21.5000868,14.0423735 Z M21.5000868,16.4296335 C24.3003012,16.4296335 26.57041,18.6996878 26.57041,21.4999566 C26.57041,24.3002253 24.3003012,26.5702797 21.5000868,26.5702797 C18.6996825,26.5702797 16.4295466,24.3002525 16.4295466,21.4999566 C16.4295466,18.6996607 18.6996825,16.4296335 21.5000868,16.4296335 Z M29.3768294,11.8158195 C28.3277371,11.8158195 27.4772215,12.6661181 27.4772215,13.7152104 C27.4772215,14.7643026 28.3277371,15.6146012 29.3768294,15.6146012 C30.4257046,15.6146012 31.2762202,14.7643026 31.2762202,13.7152104 C31.2762202,12.6661181 30.4257046,11.8158195 29.3768294,11.8158195 Z"></path>
        </g>
    </g>
</svg>