<?xml version="1.0" encoding="UTF-8"?>
<svg width="42px" height="42px" viewBox="0 0 42 42" version="1.1" xmlns="http://www.w3.org/2000/svg" xmlns:xlink="http://www.w3.org/1999/xlink">
    <title>pictograms / investment-planning</title>
    <defs>
        <filter color-interpolation-filters="auto" id="filter-1">
            <feColorMatrix in="SourceGraphic" type="matrix" values="0 0 0 0 1.000000 0 0 0 0 1.000000 0 0 0 0 1.000000 0 0 0 1.000000 0"></feColorMatrix>
        </filter>
    </defs>
    <g id="pictograms-/-investment-planning" stroke="none" stroke-width="1" fill="none" fill-rule="evenodd" stroke-linecap="round" stroke-linejoin="round">
        <g id="icons-/-pictograms-/-investment-planning" filter="url(#filter-1)">
            <g id="investment-planning-pictogram" transform="translate(3.000000, 3.000000)" stroke="#000000" stroke-width="2">
                <polyline id="Stroke-1" points="12 22 18 18 18 9"></polyline>
                <path d="M35,29 L35,24.3333333 C35,23.0437778 32.3104,22 29,22 C25.688,22 23.0016,23.0453333 23,24.3333333 L23,33.6666667 C23.0016,34.9546667 25.6864,36 29,36 C32.3136,36 34.9984,34.9546667 35,33.6666667 L35,24.3333333" id="Stroke-2"></path>
                <path d="M23.0016,24.3333333 C23.0016,25.6213333 25.688,26.6666667 29.0016,26.6666667 C32.3152,26.6666667 35,25.6213333 35,24.3333333" id="Stroke-4"></path>
                <path d="M23,29 C23,30.288 25.6864,31.3333333 29,31.3333333 C32.3136,31.3333333 35,30.288 35,29" id="Stroke-6"></path>
                <path d="M35.8759931,20 C35.9599978,19.338 36,18.67 36,18 C36,8.058 27.9415523,0 17.9989999,0 C8.05844769,0 0,8.058 0,18 C0,27.942 8.05844769,36 17.9989999,36 C18.6670371,36 19.3350742,35.958 20.0011112,35.876" id="Stroke-2"></path>
            </g>
        </g>
    </g>
</svg>