<?xml version="1.0" encoding="UTF-8"?>
<svg width="43px" height="43px" viewBox="0 0 43 43" version="1.1" xmlns="http://www.w3.org/2000/svg" xmlns:xlink="http://www.w3.org/1999/xlink">
    <title>linkedIn</title>
    <defs>
        <filter color-interpolation-filters="auto" id="filter-1">
            <feColorMatrix in="SourceGraphic" type="matrix" values="0 0 0 0 1.000000 0 0 0 0 1.000000 0 0 0 0 1.000000 0 0 0 1.000000 0"></feColorMatrix>
        </filter>
    </defs>
    <g stroke="none" fill="none">
        <g filter="url(#filter-1)">
            <g>
                <path d="M9.26784375,12.1099825 C9.25247125,13.709905 10.502965,15.0307575 12.07569,15.0762838 C13.620035,15.1206275 14.9899613,13.7980013 15.0189325,12.2353275 C15.0467213,10.6484125 13.7778988,9.320465 12.19867,9.28558125 C10.6194413,9.25010625 9.2838075,10.5372575 9.26784375,12.1099825 L9.26784375,12.1099825 Z M9.71955875,33.0538313 L14.5524363,33.0538313 L14.5524363,17.233755 L9.71955875,17.233755 L9.71955875,33.0538313 Z M33.0656562,33.0845763 C33.0656562,29.470265 33.0916712,25.9470063 33.0449625,22.42493 C33.0349113,21.6858675 32.8131925,20.9332063 32.5926562,20.2166113 C32.0593487,18.4807013 30.89163,17.3809763 29.0995512,17.0037588 C26.56368,16.4704513 24.305105,16.8825525 22.460405,19.2682463 L22.460405,17.2568138 L17.7321787,17.2568138 L17.7321787,33.027225 L22.6312762,33.027225 C22.6555175,32.8841425 22.6750287,32.8220613 22.6750287,32.7605713 C22.6785762,30.2406638 22.6667512,27.720165 22.6904012,25.2002575 C22.696905,24.5445613 22.7459787,23.8740838 22.8920175,23.2373075 C23.2284387,21.7710075 24.2572137,21.0833838 25.8287562,21.1850788 C27.14074,21.2696275 27.9442487,22.0151938 28.0128337,23.553035 C28.1381787,26.35083 28.1263537,29.1551288 28.1701062,31.9564713 C28.1754275,32.3218638 28.1706975,32.686665 28.1706975,33.0845763 L33.0656562,33.0845763 Z M19.8665913,0 L22.7045913,0 C22.9150763,0.05203 23.1237875,0.1265275 23.33782,0.153725 C32.3124038,1.3042975 38.3703513,6.13894875 41.427705,14.6352113 C42.02605,16.3001713 42.1998775,18.118265 42.57,19.8654088 L42.57,22.7034088 C42.5167875,22.9470038 42.43756,23.1870513 42.4145013,23.4330113 C41.5968025,32.1533575 35.292895,39.583005 26.769435,41.8055138 C25.4385313,42.1525775 24.0609188,42.31931 22.7045913,42.57 L19.8665913,42.57 C19.655515,42.5173788 19.4479863,42.44229 19.2339538,42.4156838 C10.3196775,41.2917175 4.292475,36.4836725 1.1860475,28.0920613 C0.55400125,26.38394 0.38372125,24.5043563 0,22.7034088 L0,19.8654088 C0.0532125,19.6259525 0.12475375,19.3894525 0.1572725,19.14704 C1.34391125,10.2091138 6.17738,4.17481625 14.651175,1.13815625 C16.3125875,0.54335875 18.1241775,0.36834875 19.8665913,0 L19.8665913,0 Z" fill="#000000"></path>
            </g>
        </g>
    </g>
</svg>