<?xml version="1.0" standalone="no"?>
<!DOCTYPE svg PUBLIC "-//W3C//DTD SVG 20010904//EN"
 "http://www.w3.org/TR/2001/REC-SVG-20010904/DTD/svg10.dtd">
<svg version="1.0" xmlns="http://www.w3.org/2000/svg"
 width="512.000000pt" height="512.000000pt" viewBox="0 0 512.000000 512.000000"
 preserveAspectRatio="xMidYMid meet">

<g transform="translate(0.000000,512.000000) scale(0.100000,-0.100000)"
fill="#000000" stroke="none">
<path d="M1775 5108 c-562 -31 -1091 -324 -1422 -788 -533 -746 -450 -1778
195 -2426 296 -297 666 -483 1087 -545 115 -17 404 -17 520 0 319 46 619 171
870 360 l80 60 660 -657 c363 -361 762 -758 887 -882 l228 -225 120 120 120
120 -492 495 c-271 272 -668 671 -883 887 l-389 392 22 28 c42 53 149 218 190
294 213 394 273 910 157 1358 -151 582 -589 1074 -1149 1288 -257 98 -516 137
-801 121z m450 -318 c634 -137 1110 -618 1245 -1255 45 -215 36 -507 -24 -730
-122 -454 -456 -847 -883 -1039 -376 -168 -788 -189 -1173 -59 -513 174 -906
596 -1039 1118 -33 128 -42 192 -48 336 -30 704 411 1347 1082 1577 78 26 217
59 320 75 17 3 118 4 225 2 154 -2 216 -8 295 -25z"/>
</g>
</svg>
