<?xml version="1.0" encoding="UTF-8"?>
<svg width="44px" height="43px" viewBox="0 0 44 43" version="1.1" xmlns="http://www.w3.org/2000/svg" xmlns:xlink="http://www.w3.org/1999/xlink">
    <title>twitter</title>
    <defs>
        <filter color-interpolation-filters="auto" id="filter-1">
            <feColorMatrix in="SourceGraphic" type="matrix" values="0 0 0 0 1.000000 0 0 0 0 1.000000 0 0 0 0 1.000000 0 0 0 1.000000 0"></feColorMatrix>
        </filter>
    </defs>
    <g stroke="none" fill="none">
        <g transform="translate(0.916800, 0)" filter="url(#filter-1)">
            <g>
                <path d="M43.001,21.5 C43.001,9.626 33.375,0 21.5,0 C9.626,0 0,9.626 0,21.5 C0,33.375 9.626,43.001 21.5,43.001 C33.375,43.001 43.001,33.375 43.001,21.5 M31.312,16.546 C31.312,16.546 32.737,16.544 33.75,15.991 C33.75,15.991 32.326,17.771 31.71,18.049 C31.699,18.055 31.69,18.059 31.68,18.062 C31.082,18.292 32.323,22.295 28.597,27.033 C28.597,27.033 25.773,30.853 20.5,31.589 C18.355,31.888 15.211,32.141 12.033,29.747 C12.033,29.747 15.254,30.162 18.474,27.77 C18.474,27.77 15.164,27.493 14.38,24.733 C14.38,24.733 15.9,24.733 16.221,24.688 C16.221,24.688 12.678,23.491 12.724,20.11 C12.724,20.11 13.92,20.638 14.587,20.569 C14.587,20.569 11.597,18.338 13.369,14.658 C13.369,14.658 16.588,19.166 22.523,19.259 C22.523,19.259 22.017,15.347 25.422,14.151 C25.422,14.151 28.319,12.955 30.253,15.21 C30.253,15.21 32.509,14.841 33.014,14.151 C33.014,14.151 32.874,15.536 31.312,16.546" id="twitter-icon" fill="#000000"></path>
            </g>
        </g>
    </g>
</svg>