<?xml version="1.0" standalone="no"?>
<!DOCTYPE svg PUBLIC "-//W3C//DTD SVG 20010904//EN"
 "http://www.w3.org/TR/2001/REC-SVG-20010904/DTD/svg10.dtd">
<svg version="1.0" xmlns="http://www.w3.org/2000/svg"
 width="512.000000pt" height="512.000000pt" viewBox="0 0 512.000000 512.000000"
 preserveAspectRatio="xMidYMid meet">

<g transform="translate(0.000000,512.000000) scale(0.100000,-0.100000)"
fill="#000000" stroke="none">
<path d="M1780 4919 c-118 -14 -245 -54 -365 -114 -338 -170 -563 -500 -593
-875 -17 -201 17 -389 104 -569 257 -538 905 -770 1441 -516 368 174 608 529
630 931 26 477 -266 920 -714 1084 -148 53 -352 78 -503 59z m260 -210 c327
-52 600 -281 706 -591 55 -162 59 -383 9 -538 -107 -333 -373 -566 -708 -620
-103 -17 -279 -8 -375 20 -559 158 -817 789 -531 1297 57 102 206 254 306 312
185 109 397 152 593 120z"/>
<path d="M1695 2484 c-432 -64 -780 -243 -1058 -545 -283 -307 -455 -724 -474
-1147 -5 -111 -3 -148 8 -168 30 -57 -49 -54 1435 -54 l1366 1 60 -56 c126
-117 280 -209 433 -259 506 -165 1068 47 1334 502 263 451 190 1016 -178 1382
-143 142 -326 246 -518 296 -133 35 -348 44 -477 20 -228 -43 -414 -135 -579
-286 l-55 -50 -84 60 c-102 74 -331 189 -458 230 -181 58 -274 72 -510 75
-118 2 -228 1 -245 -1z m373 -205 c184 -20 371 -74 527 -151 84 -42 234 -137
253 -161 10 -11 2 -33 -33 -103 -88 -172 -129 -342 -128 -534 0 -172 39 -343
107 -477 14 -29 26 -57 26 -63 0 -7 -389 -10 -1226 -10 l-1227 0 7 78 c10 107
42 260 77 367 42 126 136 314 210 420 84 118 261 294 374 371 308 210 672 303
1033 263z m1854 -19 c487 -56 850 -480 825 -965 -13 -246 -107 -455 -284 -626
-174 -169 -356 -247 -604 -256 -203 -8 -355 29 -518 126 -84 50 -217 173 -276
256 -262 367 -223 873 93 1193 170 172 389 267 647 280 17 1 69 -3 117 -8z"/>
<path d="M3776 1845 c-53 -28 -55 -36 -56 -227 l0 -178 -171 0 c-142 0 -176
-3 -199 -17 -57 -33 -66 -104 -21 -155 l29 -33 181 -3 181 -3 0 -174 0 -175
28 -31 c24 -26 36 -32 72 -32 36 0 48 6 72 32 l28 31 0 175 0 174 181 3 181 3
29 33 c31 35 37 73 17 117 -22 48 -51 55 -238 55 l-170 0 0 170 c0 187 -6 211
-55 235 -41 19 -53 19 -89 0z"/>
</g>
</svg>
