<?xml version="1.0" encoding="UTF-8"?>
<svg width="43px" height="43px" viewBox="0 0 43 43" version="1.1" xmlns="http://www.w3.org/2000/svg" xmlns:xlink="http://www.w3.org/1999/xlink">
    <title>Youtube</title>
    <defs>
        <filter color-interpolation-filters="auto" id="filter-1">
            <feColorMatrix in="SourceGraphic" type="matrix" values="0 0 0 0 1.000000 0 0 0 0 1.000000 0 0 0 0 1.000000 0 0 0 1.000000 0"></feColorMatrix>
        </filter>
    </defs>
    <g stroke="none" fill="none">
        <g filter="url(#filter-1)">
            <g>
                <path d="M21.5,0 C33.3741221,0 43,9.62587788 43,21.5 C43,33.3741221 33.3741221,43 21.5,43 C9.62587788,43 0,33.3741221 0,21.5 C0,9.62587788 9.62587788,0 21.5,0 Z M23.1154647,12.0003132 C21.3359126,11.9972274 19.5563605,12.0171478 17.7771443,12.0510915 C16.6473286,12.0730005 15.5168409,12.1128072 14.3897129,12.1937233 C13.3764734,12.2664106 12.3575228,12.3480125 11.3590654,12.5297309 C9.82845569,12.8087886 8.87367238,13.7877022 8.53503003,15.3288456 C8.35730999,16.1380411 8.24778875,16.9698313 8.18899667,17.7974729 C8.08821026,19.2203623 8.00657326,20.648086 8.00025037,22.0737183 C7.99481485,23.3855194 8.07880353,24.6990005 8.16245625,26.0090873 C8.22427192,26.9756577 8.32001901,27.9452797 8.58945469,28.8795865 C8.99293631,30.2808411 9.91110055,31.1565181 11.3123677,31.4387302 C12.0662501,31.5902764 12.8389459,31.6581637 13.6066024,31.7198794 C16.0009517,31.9125695 18.4016841,31.9519646 20.8020805,31.9766852 C20.8511299,31.9773709 20.8995074,31.9917712 20.9485568,32 L23.031476,32 C23.2477973,31.9893369 23.4641857,31.9732565 23.6808765,31.9684564 C24.9447381,31.9406501 26.2092717,31.9327985 27.4721255,31.8844545 C28.6395681,31.8395392 29.8066748,31.7713091 30.9707243,31.6756498 C31.6144135,31.6228486 32.2675431,31.5521842 32.8893953,31.385929 C34.2721849,31.0166635 35.1372683,30.0747793 35.443323,28.6553529 C35.614324,27.8619292 35.7225014,27.0493394 35.7883485,26.2391496 C35.884062,25.0573286 35.9163473,23.8699875 35.9768191,22.6850464 C35.9791372,22.6346109 35.9919371,22.5848955 36,22.5352144 L36,21.4376696 C35.9861923,21.0907246 35.9731236,20.7433682 35.9590135,20.3964232 C35.8951485,18.8624456 35.8175766,17.3291195 35.5558679,15.8133137 C35.4396275,15.1399614 35.2605637,14.4901981 34.8483472,13.9299911 C34.2543793,13.1222014 33.4692195,12.6291617 32.4929687,12.4943815 C31.6187809,12.3737273 30.7392851,12.280811 29.8594197,12.2163524 C27.6145703,12.0524629 25.3653535,12.004119 23.1154647,12.0003132 Z M19.1854664,17.7004422 C21.6130752,19.1319031 24.0131357,20.5472837 26.4528389,21.9859106 C24.0191493,23.4215202 21.6191224,24.8372094 19.1854664,26.2724418 L19.1854664,17.7004422 Z" id="youtube-icon" fill="#000000"></path>
            </g>
        </g>
    </g>
</svg>